<?xml version="1.0" encoding="utf-8"?>
<!-- Generator: Adobe Illustrator 22.0.1, SVG Export Plug-In . SVG Version: 6.00 Build 0)  -->
<svg version="1.1" id="Layer_1" xmlns="http://www.w3.org/2000/svg" xmlns:xlink="http://www.w3.org/1999/xlink" x="0px" y="0px"
	 viewBox="0 0 200 100" style="enable-background:new 0 0 200 100;" xml:space="preserve">
<g>
	<path d="M19,72.2c2.1-0.2,4-0.9,5.1-2.3c1.3-1.8,1.8-4.2,1.8-11.5V32.8h4.7v27.7c0,5.9-0.8,9.8-3.1,12.5c-2.1,2.5-5.5,3.5-8,3.5
		L19,72.2z M31.1,24.3c0.1,1.8-1.1,3.4-2.9,3.4c-1.8,0-2.9-1.6-2.9-3.4c0-2,1.2-3.5,3-3.5C30,20.8,31.1,22.3,31.1,24.3z"/>
	<path d="M40.1,32.8l3.4,15.5c0.7,3.4,1.4,6.6,1.9,9.7h0.2c0.6-3.1,1.4-6.4,2.3-9.6l4.2-15.6H56l4,15.2c1,3.7,1.7,6.9,2.3,10h0.2
		c0.4-3.1,1.1-6.3,2-9.9l3.7-15.3h4.6l-8.3,30.5h-4.3l-3.9-14.6c-0.9-3.4-1.6-6.4-2.3-10h-0.1c-0.6,3.7-1.4,6.8-2.3,10.1l-4.2,14.5
		h-4.3l-7.8-30.5H40.1z"/>
	<path d="M77.2,63.3c0.1-2.1,0.2-5.2,0.2-7.9V18.6H82v19.2h0.1c1.6-3.4,4.6-5.6,8.8-5.6c6.4,0,10.9,6.3,10.9,15.6
		C101.8,58.6,96,64,90.2,64c-3.7,0-6.7-1.7-8.6-5.7h-0.2l-0.2,5H77.2z M82,51.1c0,0.7,0.1,1.4,0.2,2c0.9,3.8,3.6,6.5,7,6.5
		c4.9,0,7.8-4.7,7.8-11.7c0-6.1-2.7-11.3-7.7-11.3c-3.2,0-6.2,2.6-7.1,6.8C82.2,44,82,44.8,82,45.6V51.1z"/>
	<path d="M116.3,27.6h-0.1l-6,3.8l-0.9-4.2l7.6-4.8h4v41h-4.5V27.6z"/>
	<path d="M143.6,27.6h-0.1l-6,3.8l-0.9-4.2l7.6-4.8h4v41h-4.5V27.6z"/>
	<path d="M183.2,22.4V26l-15.1,37.3h-4.8l15-36.2V27h-16.9v-4.6H183.2z"/>
</g>
</svg>
